<svg xmlns="http://www.w3.org/2000/svg" viewBox="0 0 120 120" role="img" aria-label="Eisbachwelle">
  <rect width="120" height="120" rx="24" fill="#0e1418" />
  <!-- Bullauge: Außenring + feiner Innenring -->
  <circle cx="60" cy="60" r="54" fill="none" stroke="#2dd4bf" stroke-width="7" />
  <circle cx="60" cy="60" r="44" fill="none" stroke="#9fb0b9" stroke-width="2" opacity="0.5" />
  <!-- Nieten -->
  <g fill="#2dd4bf">
    <circle cx="110.0" cy="60.0" r="2.4" />
    <circle cx="103.3" cy="85.0" r="2.4" />
    <circle cx="85.0" cy="103.3" r="2.4" />
    <circle cx="60.0" cy="110.0" r="2.4" />
    <circle cx="35.0" cy="103.3" r="2.4" />
    <circle cx="16.7" cy="85.0" r="2.4" />
    <circle cx="10.0" cy="60.0" r="2.4" />
    <circle cx="16.7" cy="35.0" r="2.4" />
    <circle cx="35.0" cy="16.7" r="2.4" />
    <circle cx="60.0" cy="10.0" r="2.4" />
    <circle cx="85.0" cy="16.7" r="2.4" />
    <circle cx="103.3" cy="35.0" r="2.4" />
  </g>
  <!-- Wasser im Bullauge -->
  <clipPath id="cb"><circle cx="60" cy="60" r="42" /></clipPath>
  <g clip-path="url(#cb)">
    <path d="M8 66 q14 -12 28 0 t28 0 t28 0 t28 0 t28 0 v60 h-150 z" fill="#2dd4bf" opacity="0.16" />
    <path d="M8 66 q14 -12 28 0 t28 0 t28 0 t28 0 t28 0" fill="none" stroke="#2dd4bf" stroke-width="5" stroke-linecap="round" />
    <path d="M8 52 q14 -12 28 0 t28 0 t28 0 t28 0 t28 0" fill="none" stroke="#f5a05a" stroke-width="3.5" stroke-linecap="round" />
  </g>
</svg>
